<svg width="200" height="232" viewBox="0 0 200 232" fill="none" xmlns="http://www.w3.org/2000/svg">
<g clip-path="url(#clip0_13_192)">
<path d="M4.5534 140.739C3.14282 140.739 2 139.601 2 138.194V86.9715C2 85.5649 3.14282 84.4264 4.5534 84.4264H118.048C119.079 84.4264 120.014 85.0484 120.407 85.9989C120.805 86.9481 120.583 88.0454 119.852 88.7744L68.4713 139.997C67.9911 140.477 67.3429 140.744 66.6635 140.744H4.5534V140.739Z" fill="#19CFA0"/>
<path d="M141.131 212.198C139.72 212.198 138.578 211.059 138.578 209.653V83.032C138.578 82.3542 138.846 81.7089 139.328 81.2291L197.451 23.2837C197.942 22.7952 198.593 22.537 199.259 22.537C199.587 22.537 199.921 22.6016 200.236 22.7306C201.188 23.1268 201.813 24.0539 201.813 25.0821V209.653C201.813 211.059 200.67 212.198 199.259 212.198H141.131Z" fill="#19CFA0"/>
<path d="M4.5534 202.668C4.22438 202.668 3.89186 202.603 3.57728 202.474C2.62457 202.082 2 201.151 2 200.123V151.675C2 150.268 3.14282 149.13 4.5534 149.13H53.1485C54.1806 149.13 55.1143 149.752 55.5083 150.702C55.9056 151.656 55.684 152.749 54.9531 153.478L6.36126 201.921C5.87101 202.409 5.21953 202.668 4.5534 202.668Z" fill="#19CFA0"/>
<path d="M4.5534 76.0411C3.14282 76.0411 2 74.9016 2 73.4961V15.5451C2 14.1385 3.14282 13 4.5534 13H189.696C190.727 13 191.662 13.6222 192.055 14.5725C192.452 15.5217 192.23 16.6201 191.499 17.3479L133.371 75.2934C132.89 75.7729 132.243 76.0411 131.563 76.0411H4.5534Z" fill="#19CFA0"/>
<path d="M14.108 212.198C13.0769 212.198 12.1432 211.575 11.7493 210.625C11.352 209.671 11.5736 208.578 12.3045 207.849L60.8816 159.425C61.3721 158.936 62.0247 158.678 62.6908 158.678C63.0187 158.678 63.3523 158.743 63.6669 158.872C64.6196 159.264 65.2431 160.195 65.2431 161.223V209.647C65.2431 211.054 64.1012 212.192 62.6908 212.192H14.108V212.198Z" fill="#19CFA0"/>
<path d="M101.907 212.198C101.256 212.198 100.598 211.949 100.099 211.45L74.4069 185.837C73.9256 185.357 73.6567 184.712 73.6567 184.034V147.746C73.6567 147.068 73.9256 146.422 74.4069 145.943L125.805 94.7056C126.295 94.2171 126.948 93.959 127.614 93.959C127.942 93.959 128.275 94.0235 128.589 94.1526C129.542 94.5498 130.166 95.4759 130.166 96.5041V184.02C130.166 184.697 129.899 185.343 129.417 185.823L103.716 211.446C103.216 211.944 102.564 212.194 101.907 212.194V212.198Z" fill="#19CFA0"/>
</g>
<defs>
<clipPath id="clip0_13_192">
<rect width="200" height="231.528" fill="white" transform="translate(0 0.360718)"/>
</clipPath>
</defs>
</svg>
